{"title":"Avatar.2009.1080p.BluRay.DTS.x264-LTT","uid":5521197,"size":9223000968,"categoryP":"video","categoryS":"hd___movies","magnet":"?xt=urn:btih:d66e6db2481c804db2d5dc0842221c72cd433fac&amp;dn=Avatar.2009.1080p.BluRay.DTS.x264-LTT&amp;tr=udp%3A%2F%2Ftracker.openbittorrent.com%3A80&amp;tr=udp%3A%2F%2Fopen.demonii.com%3A1337&amp;tr=udp%3A%2F%2Ftracker.coppersurfer.tk%3A6969&amp;tr=udp%3A%2F%2Fexodus.desync.com%3A6969","seeders":0,"leechers":1,"uploader":"Ltt_01","files":2,"time":1272626959,"description":"Avatar.2009.1080p.BluRay.DTS.mkv\n********************************\n\nTiTLE......  Avatar\nYEAR.......  2009\nGENRE......  Action | Adventure | Fantasy | Sci-Fi  \niMDB RATE..  User Rating: 8.4/10 (225,718 votes)\niMDB URL... &lt;a href=&quot; http://www.imdb.com/title/tt0499549/&quot; rel=&quot;nofollow&quot; target=&quot;_NEW&quot;&gt; http://www.imdb.com/title/tt0499549/&lt;/a&gt; \n*************************************************\nWon 3 Oscars. Another 28 wins &amp; 53 nominations\n\nVideo\nDuration                         : 2h 41mn\nOverall bit rate                 : 7 605 Kbps\nWidth                            : 1 920 pixels\nHeight                           : 1 080 pixels\nDisplay aspect ratio             : 16:9\nFrame rate                       : 23.976 fps\nStream size                      : 6.71 GiB (78%)\n\nAudio\nFormat                           : DTS\nFormat/Info                      : Digital Theater Systems\nBit rate                         : 1 510 Kbps\nChannel(s)                       : 6 channels\nChannel positions                : Front: L C R, Surround: L R, LFE\nSampling rate                    : 48.0 KHz\nResolution                       : 24 bits\nStream size                      : 1.71 GiB (20%)\nLanguage                         : English\n\nSubtitles: English(only Non-Eng Parts), English, Dutch, French, Finnish, Portuguese, Swedish\n********************************************************************************************\n","torrent":{"xt":"urn:btih:d66e6db2481c804db2d5dc0842221c72cd433fac","amp;dn":"Avatar.2009.1080p.BluRay.DTS.x264-LTT","amp;tr":["udp%3A%2F%2Ftracker.openbittorrent.com%3A80","udp%3A%2F%2Fopen.demonii.com%3A1337","udp%3A%2F%2Ftracker.coppersurfer.tk%3A6969","udp%3A%2F%2Fexodus.desync.com%3A6969"],"infoHash":"d66e6db2481c804db2d5dc0842221c72cd433fac","infoHashBuffer":{"type":"Buffer","data":[214,110,109,178,72,28,128,77,178,213,220,8,66,34,28,114,205,67,63,172]},"announce":[],"urlList":[]}}